<?xml version="1.0" standalone="no"?>
<!DOCTYPE svg PUBLIC "-//W3C//DTD SVG 20010904//EN"
 "http://www.w3.org/TR/2001/REC-SVG-20010904/DTD/svg10.dtd">
<svg version="1.0"
    xmlns="http://www.w3.org/2000/svg" width="700.000000pt" height="700.000000pt" viewBox="0 0 700.000000 700.000000" preserveAspectRatio="xMidYMid meet">
    <metadata>
Created by potrace 1.14, written by Peter Selinger 2001-2017
    </metadata>
    <g transform="translate(0.000000,700.000000) scale(0.100000,-0.100000)" fill="#000000" stroke="none">
        <path d="M3358 6245 c-2 -1 -42 -5 -89 -8 -84 -7 -220 -23 -249 -32 -8 -2 -31
-6 -50 -9 -19 -3 -46 -8 -60 -11 -14 -3 -36 -8 -50 -11 -14 -3 -33 -7 -42 -10
-9 -3 -25 -7 -35 -9 -131 -31 -359 -114 -506 -185 -189 -90 -400 -223 -567
-357 -91 -72 -334 -310 -390 -382 -19 -24 -40 -48 -45 -55 -62 -66 -220 -306
-287 -434 -71 -136 -81 -157 -118 -247 -18 -44 -39 -93 -46 -110 -15 -37 -67
-208 -89 -295 -37 -142 -73 -365 -74 -451 -1 -33 -8 -42 -72 -95 -60 -50 -118
-106 -224 -218 -18 -19 -77 -99 -143 -194 -42 -60 -119 -225 -152 -324 -49
-150 -70 -297 -65 -463 2 -77 6 -153 10 -170 22 -117 30 -149 52 -220 52 -166
169 -375 284 -510 119 -139 299 -292 461 -393 93 -58 296 -154 405 -191 94
-32 267 -76 338 -85 319 -42 412 -25 514 90 80 92 75 -16 76 1484 0 734 -3
1359 -8 1389 -10 68 -40 124 -92 175 -60 58 -114 79 -222 84 l-91 4 24 65 c45
120 177 362 229 419 5 7 19 24 30 40 116 162 347 367 539 478 191 111 462 210
631 232 17 2 41 6 55 8 86 17 333 24 427 12 26 -3 66 -8 88 -11 46 -6 82 -12
145 -26 25 -6 55 -13 68 -15 12 -2 64 -18 115 -35 396 -133 741 -396 975 -746
58 -85 145 -253 180 -345 l30 -77 -87 -4 c-121 -5 -143 -13 -218 -74 -27 -21
-54 -58 -75 -100 l-33 -67 1 -1371 c0 -1539 -6 -1427 75 -1519 91 -103 178
-125 414 -102 166 15 377 68 540 135 119 48 402 205 435 241 3 3 23 18 45 35
80 60 203 176 283 270 173 201 309 500 340 750 14 111 7 346 -13 443 -38 179
-111 365 -187 474 -10 14 -18 29 -18 32 0 3 -26 41 -57 84 -68 92 -213 244
-300 315 -35 27 -65 57 -67 66 -3 9 -8 50 -11 91 -3 41 -8 82 -10 90 -2 8 -7
35 -10 60 -48 348 -219 788 -432 1110 -42 63 -79 117 -82 120 -3 3 -28 34 -56
70 -78 102 -82 106 -220 245 -140 141 -166 164 -265 241 -362 283 -735 456
-1190 552 -52 12 -115 23 -140 27 -25 3 -56 8 -70 10 -69 12 -491 29 -502 20z"/>
    </g>
</svg>
